# xmcd
#
# Track frame offsets:
# 150
# 14492
# 31209
# 44906
# 60573
# 75055
# 88387
# 104679
# 120771
# 134218
# 148680
# 162592
# 178929
#
# Disc length: 2544 seconds
#
#
# Revision: 0
# Processed by: cddbd v1.5.2PL0 Copyright (c) Steve Scherf et al.
# Submitted via: FreeRIP 2.945 
#
DISCID=ba09ee0d
DTITLE=Solene and Sorridente - Lembranças do Cativeiro
DYEAR=1997
DGENRE=Country
TTITLE0=Lembranças do Cativeiro
TTITLE1=Viola e Paixão
TTITLE2=O Filho do Pecado
TTITLE3=O Verdadeiro Ateu
TTITLE4=Empecílio Sem Valor
TTITLE5=Professora Mentirosa
TTITLE6=Preciso de Você
TTITLE7=Encanto de Minha Terra
TTITLE8=Cantando no Céu
TTITLE9=Herança de Boaideiro
TTITLE10=Homenagem ao Caminhoneiro
TTITLE11=A Filha do Capataz
TTITLE12=O Lavrador
EXTD=
EXTT0=
EXTT1=
EXTT2=
EXTT3=
EXTT4=
EXTT5=
EXTT6=
EXTT7=
EXTT8=
EXTT9=
EXTT10=
EXTT11=
EXTT12=
PLAYORDER=
